# xmcd
#
# Track frame offsets: 
#        150
#        69766
#        150135
#        169020
#        191000
#        209015
#        267612
#        282425
#        302310
#
# Disc length: 4210 seconds
#
# Revision: 0
# Processed by: cddbd v1.5.2PL0 Copyright (c) Steve Scherf et al.
# Submitted via: ExactAudioCopy v1.0b1
#
DISCID=77107009
DTITLE=Various Artist - Lendvay: Five concertos
DYEAR=1963
DGENRE=Classical
TTITLE0=Concerto, saxophone, orchestra and 12 female voices  
TTITLE1=Concerto, violin, no. 02  
TTITLE2=Concerto, trumpet and wind orchestra   Senza sordina
TTITLE3=Concerto, trumpet and wind orchestra   Intermezzo lirico 
TTITLE4=Concerto, trumpet and wind orchestra   Rondo in modo classico 
TTITLE5=Pezzo concertato, cello and orchestra 
TTITLE6=Concertino, piano, winds, percussion and harp   Allegretto 
TTITLE7=Concertino, piano, winds, percussion and harp   Adagio cantabile
TTITLE8=Concertino, piano, winds, percussion and harp   Allegretto furio
TTITLE8=so 
EXTD=
EXTT0=
EXTT1=
EXTT2=
EXTT3=
EXTT4=
EXTT5=
EXTT6=
EXTT7=
EXTT8=
PLAYORDER=
